<svg width="22" height="22" viewBox="0 0 22 22" fill="none" xmlns="http://www.w3.org/2000/svg">
<path d="M21 11C21 5.47715 16.5228 1 11 1C5.47715 1 1 5.47715 1 11C1 16.5228 5.47715 21 11 21C11.8417 21 13 21.1163 13 20C13 19.391 12.6832 18.9212 12.3686 18.4544C11.9082 17.7715 11.4523 17.0953 12 16C12.6667 14.6667 13.7778 14.6667 15.4815 14.6667C16.3334 14.6667 17.3334 14.6667 18.5 14.5C20.601 14.1999 21 12.9084 21 11Z" stroke="black"/>
<path d="M6 14.002L6.00868 13.9996" stroke="black" stroke-width="0.8" stroke-linecap="round" stroke-linejoin="round"/>
<path d="M8.5 9C9.32843 9 10 8.32843 10 7.5C10 6.67157 9.32843 6 8.5 6C7.67157 6 7 6.67157 7 7.5C7 8.32843 7.67157 9 8.5 9Z" stroke="black" stroke-width="0.7"/>
<path d="M15.5 10C16.3284 10 17 9.32843 17 8.5C17 7.67157 16.3284 7 15.5 7C14.6716 7 14 7.67157 14 8.5C14 9.32843 14.6716 10 15.5 10Z" stroke="black" stroke-width="0.7"/>
</svg>
