<svg width="23" height="21" viewBox="0 0 23 21" fill="none" xmlns="http://www.w3.org/2000/svg">
<path d="M21.5131 4.95671L21.1455 6.16987C20.897 6.99011 20.7728 7.4002 20.5639 7.42015C20.3549 7.44004 20.136 7.03636 19.6983 6.229C19.2607 5.42181 18.6993 4.6616 18.0146 3.97684C14.3046 0.266855 8.37848 0.177915 4.77819 3.77821C3.59089 4.96551 2.80474 6.4059 2.41746 7.9363M1.47836 16.0347L1.84593 14.8215C2.09442 14.0013 2.21871 13.5911 2.42763 13.5712C2.63656 13.5513 2.85542 13.955 3.29312 14.7624C3.73075 15.5696 4.29213 16.3298 4.97689 17.0145C8.68687 20.7245 14.613 20.8135 18.2132 17.2132C19.4006 16.0259 20.1867 14.5855 20.574 13.0551" stroke="black" stroke-linecap="round" stroke-linejoin="round"/>
</svg>
