<svg width="165" height="253" viewBox="0 0 165 253" fill="none" xmlns="http://www.w3.org/2000/svg">
<path d="M150.291 37.7582L94.688 5.70223C93.508 5.02123 92.439 4.95622 91.666 5.40322C90.948 5.81822 88.382 7.30522 87.661 7.71422C86.88 8.15722 86.397 9.11822 86.397 10.4882L86.398 162.653C86.398 165.379 88.312 168.693 90.672 170.056L146.274 202.112C147.454 202.794 148.523 202.858 149.296 202.411C150.014 201.996 152.597 200.51 153.32 200.089C154.089 199.641 154.565 198.685 154.565 197.326V45.1612C154.565 42.4352 152.652 39.1212 150.291 37.7582Z" fill="#263238"/>
<path d="M98.426 165.273L94.417 167.588L94.418 180.243C94.418 180.924 94.897 181.753 95.487 182.094L97.359 183.175C97.949 183.516 98.906 183.516 99.496 183.175L101.368 182.094C101.958 181.753 102.617 180.955 102.841 180.311L106.448 169.903L98.426 165.273Z" fill="#263238"/>
<path d="M94.417 180.243C94.417 180.924 94.895 181.753 95.486 182.094L97.358 183.175C97.948 183.516 98.607 183.27 98.83 182.626L102.437 172.217L94.417 167.587V180.243Z" fill="#37474F"/>
<path d="M138.521 188.371L134.511 190.686L134.512 203.341C134.512 204.022 134.99 204.851 135.581 205.192L137.453 206.273C138.043 206.614 139 206.614 139.59 206.273L141.462 205.192C142.052 204.851 142.711 204.053 142.934 203.409L146.541 193L138.521 188.371Z" fill="#263238"/>
<path d="M134.512 203.342C134.512 204.023 134.99 204.852 135.58 205.193L137.452 206.274C138.042 206.615 138.701 206.369 138.924 205.725L142.531 195.316L134.511 190.686L134.512 203.342Z" fill="#37474F"/>
<path d="M90.9569 8.09332L146.56 40.1493C148.921 41.5123 150.834 44.8263 150.834 47.5523V199.717C150.834 201.08 150.356 202.037 149.582 202.484C148.809 202.931 147.74 202.866 146.56 202.185L90.9579 170.129C88.5969 168.766 86.6839 165.452 86.6839 162.726L86.6829 10.5613C86.6829 9.19132 87.1669 8.23032 87.9469 7.78732C88.7189 7.34832 89.7829 7.41632 90.9569 8.09332Z" fill="#37474F"/>
<path d="M10.2168 216.146L70.3588 250.869L154.557 202.257L150.548 199.942L90.4058 165.219L10.2168 211.516V216.146Z" fill="#455A64"/>
<path d="M70.3589 250.869V246.239L154.557 197.627V202.257L70.3589 250.869Z" fill="#263238"/>
<path d="M70.4319 243.924C81.6799 226.907 81.0539 196.821 80.0869 191.743C80.0869 191.743 84.8319 223.547 90.6749 232.629" stroke="#FAFAFA" stroke-width="0.7403" stroke-miterlimit="10"/>
<path d="M82.0908 203.3C84.0218 212.572 105.961 219.117 105.961 219.117" stroke="#FAFAFA" stroke-width="0.7403" stroke-miterlimit="10"/>
<path d="M79.929 212.522C80.548 211.017 83.597 210.808 84.177 213.254C84.177 213.254 84.5289 208.752 87.0669 210.028" stroke="#FAFAFA" stroke-width="0.7403" stroke-miterlimit="10"/>
<path d="M79.0588 219.116C80.1878 216.696 84.3488 215.368 86.1768 221.104C86.1768 221.104 86.4528 210.838 93.2428 213.924" stroke="#FAFAFA" stroke-width="0.7403" stroke-miterlimit="10"/>
<path d="M77.126 228.205C79.506 223.624 86.035 221.795 87.713 226.02C87.752 220.804 93.723 214.228 101.012 217.392" stroke="#FAFAFA" stroke-width="0.7403" stroke-miterlimit="10"/>
<path d="M73.0928 239.235C75.8878 234.158 82.7388 224.996 88.7148 228.688" stroke="#FAFAFA" stroke-width="0.7403" stroke-miterlimit="10"/>
<path d="M146.537 151.33L146.541 155.958L70.3578 199.943L10.2158 165.219V160.59L86.3978 116.608L146.537 151.33Z" fill="#263238"/>
<path d="M146.537 151.33L70.3578 195.312L10.2158 160.59L86.3978 116.608L146.537 151.33Z" fill="#455A64"/>
<path d="M146.537 100.403L146.541 105.03L70.3578 149.015L10.2158 114.291V109.662L86.3978 65.6802L146.537 100.403Z" fill="#263238"/>
<path d="M146.537 100.403L70.3578 144.384L10.2158 109.662L86.3978 65.6802L146.537 100.403Z" fill="#455A64"/>
<path d="M70.0998 84.0011L14.4968 51.9451C13.3168 51.2641 12.2478 51.1991 11.4748 51.6461C10.7568 52.0611 8.19082 53.5481 7.46982 53.9571C6.68882 54.4001 6.20581 55.3611 6.20581 56.7311L6.20682 208.896C6.20682 211.622 8.12082 214.936 10.4808 216.299L66.0828 248.355C67.2628 249.036 68.3318 249.101 69.1048 248.654C69.8228 248.239 72.4058 246.753 73.1288 246.332C73.8978 245.884 74.3738 244.928 74.3738 243.569V91.4041C74.3748 88.6781 72.4608 85.3641 70.0998 84.0011Z" fill="#263238"/>
<path opacity="0.2" d="M70.3577 107.352L74.3747 105.037V91.1401L70.3457 93.4591L70.3577 107.352Z" fill="black"/>
<path opacity="0.2" d="M150.56 61.0592L154.577 58.7442V44.8472L150.548 47.1662L150.56 61.0592Z" fill="black"/>
<path d="M18.2348 211.516L14.2258 213.831L14.2268 226.486C14.2268 227.167 14.7048 227.996 15.2948 228.337L17.1668 229.418C17.7568 229.759 18.7138 229.759 19.3038 229.418L21.1758 228.337C21.7658 227.996 22.4248 227.198 22.6488 226.554L26.2558 216.146L18.2348 211.516Z" fill="#263238"/>
<path d="M14.2268 226.486C14.2268 227.167 14.7048 227.996 15.2948 228.337L17.1668 229.418C17.7568 229.759 18.4158 229.513 18.6388 228.869L22.2458 218.461L14.2258 213.831L14.2268 226.486Z" fill="#37474F"/>
<path d="M58.3298 234.615L54.3208 236.93L54.3218 249.585C54.3218 250.266 54.7998 251.095 55.3898 251.436L57.2618 252.517C57.8518 252.858 58.8088 252.858 59.3988 252.517L61.2708 251.436C61.8608 251.095 62.5198 250.297 62.7438 249.653L66.3508 239.244L58.3298 234.615Z" fill="#263238"/>
<path d="M54.3218 249.585C54.3218 250.267 54.7998 251.095 55.3898 251.436L57.2618 252.517C57.8518 252.858 58.5108 252.612 58.7338 251.968L62.3408 241.56L54.3208 236.93L54.3218 249.585Z" fill="#37474F"/>
<path d="M10.4808 54.2631L66.0838 86.3191C68.4448 87.6821 70.3578 90.9961 70.3578 93.7221V245.887C70.3578 247.25 70.3588 250.869 70.3588 250.869C70.3588 250.869 67.2638 249.036 66.0838 248.355L10.4818 216.299C8.12178 214.936 6.20778 211.622 6.20778 208.896L6.20679 56.7311C6.20679 55.3611 6.68978 54.4001 7.47078 53.9571C8.24278 53.5181 9.30679 53.5851 10.4808 54.2631Z" fill="#37474F"/>
<path opacity="0.2" d="M66.0838 86.3191L10.4808 54.2631C9.30679 53.5851 8.24378 53.5181 7.47078 53.9571C6.68978 54.4001 6.20679 55.3611 6.20679 56.7311V70.3151L70.3578 107.353V93.7231C70.3578 90.9961 68.4438 87.6821 66.0838 86.3191Z" fill="black"/>
<path d="M98.4238 79.5702L142.528 54.1062L142.529 100.403" stroke="#FAFAFA" stroke-width="0.7403" stroke-miterlimit="10" stroke-linecap="round" stroke-linejoin="round"/>
<path d="M134.509 88.8292L142.528 54.1062L126.49 81.8842" stroke="#FAFAFA" stroke-width="0.7403" stroke-miterlimit="10" stroke-linecap="round" stroke-linejoin="round"/>
<path d="M142.528 54.1062L118.471 77.2542" stroke="#FAFAFA" stroke-width="0.7403" stroke-miterlimit="10" stroke-linecap="round" stroke-linejoin="round"/>
<path d="M142.529 93.0162C142.539 86.5242 135.125 86.1652 135.125 86.1652C135.579 84.1982 135.086 81.0412 132.695 78.9982C130.304 76.9552 128.688 78.0772 128.206 78.9132C128.206 78.9132 128.708 72.9472 123.549 72.3692C123.549 72.3692 126.969 66.0592 123.549 65.0642" stroke="#FAFAFA" stroke-width="0.7403" stroke-miterlimit="10" stroke-linecap="round" stroke-linejoin="round"/>
<path d="M142.528 83.0412C142.266 79.7202 139.726 75.4962 137.118 77.5332C137.118 77.5332 137.807 70.2863 132.638 71.2363C132.638 71.2363 135.061 64.5142 129.981 66.1792C129.981 66.1792 133.641 61.5512 130.803 60.8752" stroke="#FAFAFA" stroke-width="0.7403" stroke-miterlimit="10" stroke-linecap="round" stroke-linejoin="round"/>
<path d="M164.069 37.9073C164.076 37.0153 163.492 36.1223 162.31 35.4403L102.697 1.02225C100.337 -0.34075 96.509 -0.34075 94.149 1.02225L2.46097 53.9583C1.27897 54.6403 0.694966 55.5333 0.701966 56.4263C0.708966 57.2543 0.708966 60.2283 0.701966 61.0563C0.694966 61.9483 1.27897 62.8413 2.46097 63.5233L62.074 97.9402C64.434 99.3032 68.262 99.3032 70.622 97.9402L162.31 45.0043C163.492 44.3223 164.076 43.4293 164.069 42.5363C164.062 41.7093 164.062 38.7353 164.069 37.9073Z" fill="#37474F"/>
<path d="M62.0749 93.3103L2.46189 58.8933C0.101895 57.5303 0.101895 55.3213 2.46189 53.9583L94.1499 1.02225C96.5109 -0.34075 100.338 -0.34075 102.698 1.02225L162.311 35.4403C164.671 36.8033 164.671 39.0132 162.311 40.3752L70.6239 93.3112C68.2629 94.6732 64.4359 94.6733 62.0749 93.3103Z" fill="#455A64"/>
<path opacity="0.1" d="M150.547 51.7913L122.483 86.5143L74.375 114.296L74.3669 95.7733L150.547 51.7913Z" fill="black"/>
<path opacity="0.1" d="M146.541 105.03L122.483 137.441L74.375 165.223L74.374 146.697L146.541 105.03Z" fill="black"/>
<path opacity="0.1" d="M146.541 155.96L122.483 188.37L74.375 216.152V197.623L146.541 155.96Z" fill="black"/>
<path d="M84.7512 107.108C92.3612 106.007 99.3132 101.132 103.725 94.9425C105.779 92.0605 107.34 88.8345 108.225 85.4035C109.037 82.2555 109.492 78.7206 108.689 75.5226C107.313 70.0406 102.233 66.7885 96.8612 66.1035C94.1532 65.7575 91.3492 66.0086 88.7662 66.9016C86.0132 67.8526 83.7652 69.5835 82.0692 71.9475C81.1882 73.1755 80.2652 74.7015 80.2242 76.2605C80.1882 77.6175 81.1592 78.5875 82.4622 78.8095C84.0342 79.0765 85.6932 78.4055 87.0382 77.6495C88.6972 76.7165 90.1202 75.4975 91.3062 74.0115C93.7292 70.9755 95.7942 67.2655 96.8492 63.5085C97.7602 60.2625 97.5642 56.7175 96.8692 53.4515C96.1592 50.1135 94.7752 46.7036 92.3322 44.2506C89.7762 41.6846 86.1222 40.4155 82.5992 39.9545C79.0242 39.4875 75.2652 39.8095 71.8532 40.9895C70.3842 41.4975 68.8672 42.1755 67.7272 43.2435C66.8692 44.0475 65.8882 45.3705 66.2392 46.6645C66.6292 48.1075 68.4882 48.5395 69.7772 48.3745C71.6592 48.1325 73.4542 46.9615 74.7872 45.6615C76.2552 44.2295 77.5772 42.4815 78.5542 40.6755C79.2742 39.3435 79.7162 37.8625 79.6852 36.3385C79.5562 29.9905 72.5502 25.8905 67.0552 24.7335C65.5642 24.4195 64.0602 24.3215 62.5432 24.4355C62.0342 24.4735 62.3442 25.2735 62.7572 25.2425C65.6422 25.0255 68.6122 25.8925 71.1722 27.1695C73.6552 28.4085 76.0182 30.2415 77.3832 32.7025C78.7582 35.1805 78.5982 38.0295 77.1492 40.4395C76.1572 42.0895 74.9552 43.7645 73.5272 45.0625C72.3362 46.1445 70.5472 47.3905 68.8512 47.2685C68.3542 47.2325 67.7212 46.9955 67.5332 46.4425C67.3102 45.7875 67.8072 45.0265 68.1292 44.6265C68.9392 43.6205 70.1782 43.0135 71.3572 42.4905C74.2862 41.1905 77.6662 40.7675 80.8452 40.9335C84.1192 41.1055 87.5262 41.9475 90.1872 43.9415C92.6872 45.8155 94.1582 48.7165 95.0482 51.6505C95.9672 54.6825 96.3532 58.0005 95.9242 61.1525C95.4872 64.3625 93.9592 67.4355 92.2982 70.1745C90.4472 73.2275 88.1242 76.1395 84.6442 77.3745C83.7842 77.6795 81.9842 78.1325 81.6402 76.8775C81.3012 75.6425 82.2812 74.0945 82.9162 73.1245C84.3602 70.9195 86.2912 69.2145 88.7342 68.2135C91.0242 67.2755 93.5632 66.9245 96.0272 67.1105C100.736 67.4665 105.519 69.9265 107.159 74.6055C108.12 77.3465 107.924 80.3925 107.412 83.2065C106.845 86.3175 105.687 89.3135 104.102 92.0455C100.702 97.9035 95.3922 102.304 89.2132 104.989C87.7322 105.632 86.1952 106.168 84.6622 106.674C84.5002 106.733 84.5712 107.134 84.7512 107.108Z" fill="#E0E0E0"/>
<path d="M52.9623 20.2855C48.9093 20.0005 43.4523 23.1455 45.4113 25.4475C47.3713 27.7495 52.5763 24.0255 52.5763 24.0255C52.5763 24.0255 52.0853 28.6775 53.7883 29.2025C55.4903 29.7275 57.7433 25.2975 56.0853 22.4615C56.0853 22.4615 58.6413 23.5955 61.0573 21.8145C63.4733 20.0335 60.9113 18.3595 57.5013 18.6575C57.5013 18.6575 59.9413 10.6825 55.0123 12.1895C52.5773 12.9345 51.7023 15.8285 52.9623 20.2855Z" fill="#00C3B0"/>
<path opacity="0.65" d="M52.9623 20.2855C48.9093 20.0005 43.4523 23.1455 45.4113 25.4475C47.3713 27.7495 52.5763 24.0255 52.5763 24.0255C52.5763 24.0255 52.0853 28.6775 53.7883 29.2025C55.4903 29.7275 57.7433 25.2975 56.0853 22.4615C56.0853 22.4615 58.6413 23.5955 61.0573 21.8145C63.4733 20.0335 60.9113 18.3595 57.5013 18.6575C57.5013 18.6575 59.9413 10.6825 55.0123 12.1895C52.5773 12.9345 51.7023 15.8285 52.9623 20.2855Z" fill="white"/>
<path d="M56.6834 21.9854C56.4664 21.7674 56.2274 21.5654 55.9834 21.3774C55.6324 21.1064 55.2674 20.8514 54.9104 20.5894C54.5694 20.3394 54.2104 20.1204 53.8394 19.9184C53.6244 19.8014 53.4044 19.6924 53.1804 19.5944C52.8344 19.4434 52.5354 19.3874 52.1554 19.4354C51.8024 19.4804 51.4894 19.8814 51.7534 20.2164C52.0684 20.6164 52.4544 20.6934 52.8034 20.8734C52.9864 20.9674 53.1664 21.0674 53.3434 21.1714C53.7104 21.3864 54.0464 21.6374 54.3884 21.8894C54.7294 22.1404 55.0824 22.3744 55.4184 22.6314C55.9494 23.0364 56.4894 23.4414 57.1254 23.6674C57.1824 23.6874 57.2564 23.6774 57.3004 23.6344C57.7224 23.2294 56.9774 22.2804 56.6834 21.9854Z" fill="#455A64"/>
</svg>
